<svg xmlns="http://www.w3.org/2000/svg">
    <defs>
        <style>.a{fill:#febe69;}.b{fill:#f2635f;}.c{fill:#645d5c;}.d{fill:#ffebd2;}</style>

        <g id="ema" viewBox="0 0 280 234">
            <path class="a" d="M1.658,101.736,138.393,51.969a2.516,2.516,0,0,1,1.724,0l136.728,49.764a2.51,2.51,0,0,1,1.658,2.359c0,12.872,0,91.543,0,133.372a2.51,2.51,0,0,1-2.514,2.515c-72.036,0-207.97-.1-273.471-.1A2.519,2.519,0,0,1,0,237.362V104.1A2.521,2.521,0,0,1,1.658,101.736Z"/>
            <path class="b" d="M211.367,198.916c-.917-.589-1.587-1.028-1.68-1.108a11.853,11.853,0,0,0-3.447-.493,11.129,11.129,0,0,0-11.346,11.277,11.892,11.892,0,0,0,2.157,7.081l6.362,5.461c4.726-6.53,9.406-13.177,13.251-18.812Z"/>
            <path class="c" d="M136.855,2.318v38c0,3.089,4.8,3.094,4.8,0v-38c0-3.088-4.8-3.093-4.8,0Z"/>
            <path class="d" d="M248.445,209.192h4.479c-5.213-6.937-10.1-13.834-12.739-17.972a4.99,4.99,0,0,0-4.26-2.15H220.69a5.122,5.122,0,0,0-4.332,2.242c-5.548,8.614-16.45,24.084-25.529,36.165h46.026a3.124,3.124,0,0,0,3.124-3.124v-.071a3.053,3.053,0,0,0-3.053-3.053,6.018,6.018,0,1,1,0-12.036Z"/>
            <path class="d" d="M181.3,229.876h54.12c.474,0,.952.018,1.426,0a5.524,5.524,0,0,0,.077-11.048,3.752,3.752,0,0,1-2.982-1.566,3.667,3.667,0,0,1,2.611-5.671,72.766,72.766,0,0,1,7.281,0h25.275c3.088,0,3.093-4.8,0-4.8H247.168c-3.276,0-6.552-.012-9.828,0a8.832,8.832,0,0,0-6.365,2.467A8.4,8.4,0,0,0,234.02,223.1a9.532,9.532,0,0,0,2.565.519c.387.037.678-.028.905.332.506.8-.431,1.113-1.052,1.125-2.388.045-4.781,0-7.168,0H201.433c-6.593,0-13.212-.168-19.8,0-.109,0-.218,0-.326,0-3.089,0-3.094,4.8,0,4.8Z"/>
        </g>

        <symbol id="dappy" viewBox="0 0 530 530">
            <path
                fillRule="evenodd"
                clipRule="evenodd"
                d="M530 270.828C530 124.577 411.357 6.01685 265.003 6.01685C118.643 6.01685 0 124.577 0 270.828V409.23C0 474.092 53.1101 527.165 118.023 527.165H411.983C476.89 527.165 530 474.092 530 409.23V270.828Z"
                fill="white"
            />
            <mask
                id="mask0"
                mask-type="alpha"
                maskUnits="userSpaceOnUse"
                x="39"
                y="55"
                width="455"
                height="446"
            >
                <path
                    fillRule="evenodd"
                    clipRule="evenodd"
                    d="M493.04 282.859C493.04 242.218 481.083 84.4307 328.083 60.5287C192.129 39.2851 79.4516 82.0429 50.768 218.31C22.0783 354.577 48.3742 481.28 148.782 493.238C249.196 505.189 277.88 500.407 383.069 495.625C488.258 490.844 493.04 323.499 493.04 282.859Z"
                    fill="#FF5A9D"
                />
            </mask>

            <g mask="url(#mask0)">
                <rect
                    x="309.319"
                    y="-350.467"
                    width="148.78"
                    height="1786.53"
                    transform="rotate(25.3087 309.319 -350.467)"
                    fill="#FF5A9D"
                />
                <rect
                    x="467.605"
                    y="-345.085"
                    width="161.656"
                    height="1941.13"
                    transform="rotate(25.3087 467.605 -345.085)"
                    fill="#FFE922"
                />
                <rect
                    x="666.441"
                    y="-387.71"
                    width="179.817"
                    height="2159.21"
                    transform="rotate(25.3087 666.441 -387.71)"
                    fill="#60C5E5"
                />
            </g>

            <path
                fillRule="evenodd"
                clipRule="evenodd"
                d="M360.968 167C316.238 167 278.111 195.299 263.52 234.972C248.928 195.299 210.802 167 166.065 167C108.734 167 62.2588 213.475 62.2588 270.807C62.2588 328.138 108.734 374.613 166.065 374.613C210.802 374.613 248.928 346.314 263.52 306.642C278.111 346.314 316.238 374.613 360.968 374.613C418.299 374.613 464.774 328.138 464.774 270.807C464.774 213.475 418.299 167 360.968 167Z"
                fill="white"
            />
            <path
                d="M130.708 210C106.104 210 91 231.473 91 249.08C91 287.156 134.377 322.505 165 345C195.623 322.497 239 287.156 239 249.08C239 231.471 223.903 210 199.292 210C185.549 210 173.804 220.934 165 231.315C156.188 220.933 144.452 210 130.708 210Z"
                fill="#FF5A9D"
            />
            <path
                fillRule="evenodd"
                clipRule="evenodd"
                d="M247.719 229.838C247.719 246.294 234.379 259.629 217.929 259.629C201.473 259.629 188.139 246.294 188.139 229.838C188.139 213.388 201.473 200.048 217.929 200.048C234.379 200.048 247.719 213.388 247.719 229.838Z"
                fill="white"
            />
            <path
                d="M324.708 204C300.104 204 285 225.474 285 243.081C285 281.157 328.377 316.506 359 339.001C389.623 316.498 433 281.157 433 243.081C433 225.472 417.903 204 393.292 204C379.549 204 367.804 214.935 359 225.316C350.188 214.934 338.452 204 324.708 204Z"
                fill="#FF5A9D"
            />
            <path
                fillRule="evenodd"
                clipRule="evenodd"
                d="M441.719 223.839C441.719 240.295 428.379 253.63 411.929 253.63C395.473 253.63 382.139 240.295 382.139 223.839C382.139 207.389 395.473 194.049 411.929 194.049C428.379 194.049 441.719 207.389 441.719 223.839Z"
                fill="white"
            />
        </symbol>
    </defs>

    <use fill="#db8c81" x="16px" y="16px" width="114px" height="109px" xlink:href="#dappy"></use>
    <use fill="#db8c81" x="16px" y="16px" width="114px" height="109px" xlink:href="#ema"></use>
</svg>