<svg xmlns="http://www.w3.org/2000/svg" width="278.504" height="239.979" viewBox="0 0 278.504 239.979"><defs><style>.a{fill:#febe69;}.b{fill:#f2635f;}.c{fill:#645d5c;}.d{fill:#ffebd2;}</style></defs><path class="a" d="M1.658,101.736,138.393,51.969a2.516,2.516,0,0,1,1.724,0l136.728,49.764a2.51,2.51,0,0,1,1.658,2.359c0,12.872,0,91.543,0,133.372a2.51,2.51,0,0,1-2.514,2.515c-72.036,0-207.97-.1-273.471-.1A2.519,2.519,0,0,1,0,237.362V104.1A2.521,2.521,0,0,1,1.658,101.736Z"/><path class="b" d="M211.367,198.916c-.917-.589-1.587-1.028-1.68-1.108a11.853,11.853,0,0,0-3.447-.493,11.129,11.129,0,0,0-11.346,11.277,11.892,11.892,0,0,0,2.157,7.081l6.362,5.461c4.726-6.53,9.406-13.177,13.251-18.812Z"/><path class="c" d="M136.855,2.318v38c0,3.089,4.8,3.094,4.8,0v-38c0-3.088-4.8-3.093-4.8,0Z"/><path class="d" d="M248.445,209.192h4.479c-5.213-6.937-10.1-13.834-12.739-17.972a4.99,4.99,0,0,0-4.26-2.15H220.69a5.122,5.122,0,0,0-4.332,2.242c-5.548,8.614-16.45,24.084-25.529,36.165h46.026a3.124,3.124,0,0,0,3.124-3.124v-.071a3.053,3.053,0,0,0-3.053-3.053,6.018,6.018,0,1,1,0-12.036Z"/><path class="d" d="M181.3,229.876h54.12c.474,0,.952.018,1.426,0a5.524,5.524,0,0,0,.077-11.048,3.752,3.752,0,0,1-2.982-1.566,3.667,3.667,0,0,1,2.611-5.671,72.766,72.766,0,0,1,7.281,0h25.275c3.088,0,3.093-4.8,0-4.8H247.168c-3.276,0-6.552-.012-9.828,0a8.832,8.832,0,0,0-6.365,2.467A8.4,8.4,0,0,0,234.02,223.1a9.532,9.532,0,0,0,2.565.519c.387.037.678-.028.905.332.506.8-.431,1.113-1.052,1.125-2.388.045-4.781,0-7.168,0H201.433c-6.593,0-13.212-.168-19.8,0-.109,0-.218,0-.326,0-3.089,0-3.094,4.8,0,4.8Z"/></svg>